{"title":"Kinema no tenchi AKA Final take the golden age of movies (1986)","uid":11258360,"size":1806025063,"categoryP":"video","categoryS":"movies","magnet":"?xt=urn:btih:b5ec39a866dc76d14238f9dc2835ccdea7deb7a6&amp;dn=Kinema+no+tenchi+AKA+Final+take+the+golden+age+of+movies+%281986%29&amp;tr=udp%3A%2F%2Ftracker.openbittorrent.com%3A80&amp;tr=udp%3A%2F%2Fopen.demonii.com%3A1337&amp;tr=udp%3A%2F%2Ftracker.coppersurfer.tk%3A6969&amp;tr=udp%3A%2F%2Fexodus.desync.com%3A6969","seeders":1,"leechers":0,"uploader":"rpessoa","files":1,"time":1413929736,"description":"Kinema no tenchi is Japanese director Yoji Yamada's love letter to 1930s moviemaking. A Shochiku production set at the company's own Kamata Studios during the transition from silent film to talkies, it traces one woman's journey from extra to leading player. It's made with obvious affection and movie buffs will find it fascinating, but it plays as if Yamada was eager to make a film about the era but couldn't settle on a story or tone for his picture.\nNarimi Arimori stars as Koharu Tanaka, a young woman whose pretty features win her an invitation to join Shochiku as a New Face, a contract extra and bit player hired with an eye on building her up to bigger roles. At Shochiku she finds her work alternately thrilling and frustrating, and gradually hones her craft and falls in love with assistant director and aspiring screenwriter Kenjiro Shimada.\n &lt;a href=&quot;\nhttp://www.imdb.com/title/tt0093348/&quot; rel=&quot;nofollow&quot; target=&quot;_NEW&quot;&gt;\nhttp://www.imdb.com/title/tt0093348/&lt;/a&gt;\n\nGeneral\nUnique ID                                : 247992475551138054958877232766309865553 (0xBA919D0C05341DA0F10E169BDD339851)\nComplete name                            : Kinema.no.tenchi.aka.Final.take.the.golden.age.of.movies (1986).mkv\nFormat                                   : Matroska\nFormat version                           : Version 2\nFile size                                : 1.68 GiB\nDuration                                 : 1h 56mn\nOverall bit rate                         : 2 060 Kbps\nWriting application                      : HandBrake 0.9.9\nWriting library                          : libmkv 0.6.5\n\nVideo\nID                                       : 1\nFormat                                   : AVC\nFormat/Info                              : Advanced Video Codec\nFormat profile                           : &lt;a class=&quot;__cf_email__&quot; href=&quot;/cdn-cgi/l/email-protection&quot; data-cfemail=&quot;afe7c6c8c7efe39c819e&quot;&gt;[email&amp;#160;protected]&lt;/a&gt;&lt;script cf-hash='f9e31' type=&quot;text/javascript&quot;&gt;\n/* &lt;![CDATA[ */!function(){try{var t=&quot;currentScript&quot;in document?document.currentScript:function(){for(var t=document.getElementsByTagName(&quot;script&quot;),e=t.length;e--;)if(t[e].getAttribute(&quot;cf-hash&quot;))return t[e]}();if(t&amp;&amp;t.previousSibling){var e,r,n,i,c=t.previousSibling,a=c.getAttribute(&quot;data-cfemail&quot;);if(a){for(e=&quot;&quot;,r=parseInt(a.substr(0,2),16),n=2;a.length-n;n+=2)i=parseInt(a.substr(n,2),16)^r,e+=String.fromCharCode(i);e=document.createTextNode(e),c.parentNode.replaceChild(e,c)}}}catch(u){}}();/* ]]&gt; */&lt;/script&gt;\nFormat settings, CABAC                   : Yes\nFormat settings, ReFrames                : 9 frames\nCodec ID                                 : V_MPEG4/ISO/AVC\nDuration                                 : 1h 56mn\nBit rate                                 : 1 850 Kbps\nWidth                                    : 706 pixels\nHeight                                   : 356 pixels\nDisplay aspect ratio                     : 16:9\nOriginal display aspect ratio            : 16:9\nFrame rate                               : 29.970 fps\nColor space                              : YUV\nChroma subsampling                       : 4:2:0\nBit depth                                : 8 bits\nScan type                                : Progressive\nBits/(Pixel*Frame)                       : 0.246\nStream size                              : 1.49 GiB (89%)\nWriting library                          : x264 core 130 r2273 b3065e6\nEncoding settings                        : cabac=1 / ref=9 / deblock=1:-2:-2 / analyse=0x3:0x133 / me=umh / subme=9 / psy=1 / psy_rd=1.00:0.00 / mixed_ref=1 / me_range=16 / chroma_me=1 / trellis=2 / 8x8dct=1 / cqm=0 / deadzone=21,11 / fast_pskip=1 / chroma_qp_offset=-2 / threads=3 / lookahead_threads=1 / sliced_threads=0 / nr=0 / decimate=1 / interlaced=0 / bluray_compat=0 / constrained_intra=0 / bframes=6 / b_pyramid=2 / b_adapt=2 / b_bias=0 / direct=3 / weightb=1 / open_gop=0 / weightp=2 / keyint=300 / keyint_min=30 / scenecut=40 / intra_refresh=0 / rc_lookahead=40 / rc=abr / mbtree=1 / bitrate=1850 / ratetol=1.0 / qcomp=0.60 / qpmin=0 / qpmax=69 / qpstep=4 / ip_ratio=1.40 / aq=1:1.20\nLanguage                                 : English\nDefault                                  : Yes\nForced                                   : No\nColor primaries                          : BT.470-6 System B, BT.470-6 System G, BT.601-6 625, BT.1358 625, BT.1700 625 PAL, BT.1700 625 SECAM\nTransfer characteristics                 : BT.709-5, BT.1361\nMatrix coefficients                      : BT.601-6 525, BT.1358 525, BT.1700 NTSC, SMPTE 170M\n\nAudio\nID                                       : 2\nFormat                                   : AC-3\nFormat/Info                              : Audio Coding 3\nMode extension                           : CM (complete main)\nCodec ID                                 : A_AC3\nDuration                                 : 1h 56mn\nBit rate mode                            : Constant\nBit rate                                 : 192 Kbps\nChannel(s)                               : 2 channels\nChannel positions                        : Front: L R\nSampling rate                            : 48.0 KHz\nBit depth                                : 16 bits\nCompression mode                         : Lossy\nStream size                              : 161 MiB (9%)\nLanguage                                 : Japanese\nDefault                                  : Yes\nForced                                   : No\n\nText\nID                                       : 3\nFormat                                   : VobSub\nCodec ID                                 : S_VOBSUB\nCodec ID/Info                            : The same subtitle format used on DVDs\nLanguage                                 : English\nDefault                                  : No\nForced                                   : No\n\nMenu\n00:00:00.000                             : Chapter 1\n00:09:43.649                             : Chapter 2\n00:19:09.214                             : Chapter 3\n00:28:55.300                             : Chapter 4\n00:38:25.369                             : Chapter 5\n00:50:09.039                             : Chapter 6\n00:58:57.600                             : Chapter 7\n01:05:45.007                             : Chapter 8\n01:15:29.091                             : Chapter 9\n01:26:08.196                             : Chapter 10\n01:37:41.889                             : Chapter 11\n01:45:52.379                             : Chapter 12","torrent":{"xt":"urn:btih:b5ec39a866dc76d14238f9dc2835ccdea7deb7a6","amp;dn":"Kinema+no+tenchi+AKA+Final+take+the+golden+age+of+movies+%281986%29","amp;tr":["udp%3A%2F%2Ftracker.openbittorrent.com%3A80","udp%3A%2F%2Fopen.demonii.com%3A1337","udp%3A%2F%2Ftracker.coppersurfer.tk%3A6969","udp%3A%2F%2Fexodus.desync.com%3A6969"],"infoHash":"b5ec39a866dc76d14238f9dc2835ccdea7deb7a6","infoHashBuffer":{"type":"Buffer","data":[181,236,57,168,102,220,118,209,66,56,249,220,40,53,204,222,167,222,183,166]},"announce":[],"urlList":[]}}